<?xml version="1.0" encoding="UTF-8"?>
<svg id="Calque_1" data-name="Calque 1" xmlns="http://www.w3.org/2000/svg" xmlns:xlink="http://www.w3.org/1999/xlink" viewBox="0 0 54.26 59.9">
  <defs>
    <style>
      .cls-1 {
        fill: #e83d3e;
      }

      .cls-2 {
        fill: url(#Gold_Dust);
      }

      .cls-3, .cls-4, .cls-5 {
        fill: #2e2d2d;
      }

      .cls-4 {
        stroke-miterlimit: 0;
        stroke-width: 0px;
      }

      .cls-4, .cls-6, .cls-7 {
        stroke: #010101;
      }

      .cls-6 {
        stroke-width: 3px;
      }

      .cls-6, .cls-7 {
        fill: none;
        stroke-miterlimit: 10;
      }

      .cls-7 {
        stroke-linecap: round;
        stroke-width: 4px;
      }

      .cls-8 {
        letter-spacing: -.02em;
      }

      .cls-9 {
        fill: url(#Gold_Dust-2);
      }

      .cls-5 {
        font-family: Constantia-Bold, Constantia;
        font-size: 9px;
        font-weight: 700;
      }
    </style>
    <linearGradient id="Gold_Dust" data-name="Gold Dust" x1="0" y1="22.88" x2="14.36" y2="22.88" gradientUnits="userSpaceOnUse">
      <stop offset="0" stop-color="#ee741c"/>
      <stop offset=".18" stop-color="#eb7d17"/>
      <stop offset=".48" stop-color="#e69609"/>
      <stop offset=".55" stop-color="#e59e06"/>
      <stop offset=".87" stop-color="#e5c506"/>
      <stop offset=".99" stop-color="#bf7014"/>
    </linearGradient>
    <linearGradient id="Gold_Dust-2" data-name="Gold Dust" x1="39.9" x2="54.26" xlink:href="#Gold_Dust"/>
  </defs>
  <g>
    <g>
      <g>
        <path class="cls-2" d="m9.83,5.95c-2.74,3.28-1,8.41-1.53,11.96-.52,3.55-2.66,4.97-2.66,4.97,0,0,2.14,1.43,2.66,4.97.53,3.55-1.21,8.68,1.53,11.96.89,1.07,1.97,1.6,2.98,1.85.92.23,1.55,1.06,1.55,2.01h0c0,1.23-1.06,2.21-2.28,2.07-6.9-.79-8.99-5.43-8.64-11.36.3-4.9-.47-7.46-1.86-8.43-.94-.66-1.58-1.66-1.58-2.81v-.55c0-1.15.64-2.15,1.58-2.81,1.39-.97,2.16-3.53,1.86-8.43C3.09,5.45,5.18.8,12.08.01c1.22-.14,2.28.85,2.28,2.07h0c0,.95-.63,1.78-1.55,2.01-1,.25-2.09.78-2.98,1.85Z"/>
        <path class="cls-9" d="m44.43,5.95c2.74,3.28,1,8.41,1.53,11.96.52,3.55,2.66,4.97,2.66,4.97,0,0-2.14,1.43-2.66,4.97-.53,3.55,1.21,8.68-1.53,11.96-.89,1.07-1.97,1.6-2.98,1.85-.92.23-1.55,1.06-1.55,2.01h0c0,1.23,1.06,2.21,2.28,2.07,6.9-.79,8.99-5.43,8.64-11.36-.3-4.9.47-7.46,1.86-8.43.94-.66,1.58-1.66,1.58-2.81v-.55c0-1.15-.64-2.15-1.58-2.81-1.39-.97-2.16-3.53-1.86-8.43.36-5.92-1.73-10.57-8.64-11.36-1.22-.14-2.28.85-2.28,2.07h0c0,.95.63,1.78,1.55,2.01,1,.25,2.09.78,2.98,1.85Z"/>
      </g>
      <g>
        <path class="cls-4" d="m23.42,17.1c0,3.16-2.57,5.73-5.73,5.73s-5.73-2.57-5.73-5.73,2.57-5.73,5.73-5.73,5.73,2.57,5.73,5.73Z"/>
        <path class="cls-4" d="m42.31,17.1c0,3.16-2.57,5.73-5.73,5.73s-5.73-2.57-5.73-5.73,2.57-5.73,5.73-5.73,5.73,2.57,5.73,5.73Z"/>
      </g>
      <path class="cls-6" d="m21.93,17.61s.96-4.15,5.2-4.15,5.2,4.15,5.2,4.15"/>
      <path class="cls-7" d="m31.94,31.26s-.89,3.12-4.81,3.12-4.81-3.12-4.81-3.12"/>
    </g>
    <text class="cls-5" transform="translate(8.61 57.64)"><tspan x="0" y="0">visualit</tspan><tspan class="cls-8" x="31.67" y="0">y</tspan></text>
  </g>
  <g>
    <path class="cls-3" d="m29.1,24.63h1.7s-2.74,3.78-2.74,3.78c-.04.05-.08.1-.12.14-.03.03-.07.06-.1.09l-.71-1.28,1.97-2.72Z"/>
    <path class="cls-1" d="m23.46,24.63h1.7s1.97,2.72,1.97,2.72l.81,1.19s-.07.06-.1.09c-.03.03-.07.05-.1.07-.18.11-.39.18-.61.18-.37,0-.72-.18-.93-.48l-2.74-3.78Z"/>
  </g>
</svg>